# Wavefront OBJ exported by RE3MV
#
# object Object_1 to come ...
#
v 0.008 2.473 -0.125
v 0.055 3.352 -0.766
v 0.008 2.867 -0.426
v 0.266 3.480 -0.527
v 0.277 3.629 -0.563
v 0.008 3.148 -0.613
v 0.008 2.840 0.496
v 0.480 3.070 0.211
v 0.008 3.262 -0.629
v 0.008 2.934 -0.535
v 0.293 2.840 0.367
v 0.125 4.332 -0.199
v 0.336 4.016 -0.512
v -0.117 2.906 -0.422
v -0.305 2.867 0.066
v -0.117 2.938 -0.176
v 0.125 2.906 -0.422
v 0.125 2.938 -0.176
v -0.266 3.629 -0.563
v 0.332 3.156 0.027
v 0.008 3.523 0.824
v -0.055 4.301 0.492
v -0.191 3.977 -0.789
v 0.406 4.117 -0.586
v 0.355 4.109 -0.137
v -0.379 4.230 -0.148
v 0.316 3.137 -0.410
v -0.309 3.137 -0.410
v 0.008 4.379 0.230
v 0.234 4.211 0.277
v -0.488 3.227 -0.250
v -0.297 4.281 0.359
v -0.262 2.840 0.367
v -0.266 3.313 -0.543
v 0.008 4.070 0.742
v -0.465 3.992 0.559
v -0.379 3.160 -0.172
v -0.496 3.766 -0.281
v -0.348 4.109 -0.465
v 0.402 3.160 -0.027
v -0.031 3.352 -0.766
v -0.180 3.969 -0.613
v 0.191 4.020 -0.613
v 0.168 3.145 -0.551
v 0.008 3.059 0.480
v -0.121 3.297 -0.613
v 0.145 3.297 -0.613
v 0.051 3.590 -0.637
v -0.266 2.594 0.074
v -0.031 3.590 -0.637
v 0.277 3.305 -0.543
v 0.250 4.172 -0.480
v 0.414 3.605 -0.398
v -0.367 3.605 -0.422
v 0.191 3.691 -0.652
v -0.160 3.691 -0.652
v -0.570 3.520 0.613
v -0.086 2.969 -0.516
v 0.484 3.652 -0.066
v 0.277 2.594 0.074
v -0.086 3.594 -0.574
v 0.102 3.594 -0.582
v -0.336 3.691 -0.574
v 0.641 3.395 0.219
v 0.008 3.074 -0.551
v 0.391 3.691 -0.551
v 0.348 4.160 0.281
v 0.551 3.988 -0.039
v 0.520 3.453 -0.035
v 0.094 2.969 -0.516
v 0.594 3.711 0.000
v 0.613 3.750 0.227
v -0.609 3.840 -0.043
v -0.691 3.492 0.047
v -0.418 3.418 -0.430
v 0.434 3.418 -0.434
v -0.027 3.301 -0.727
v 0.051 3.301 -0.727
v -0.145 3.145 -0.551
v -0.258 3.480 -0.527
v 0.492 3.453 0.641
v 0.445 2.863 -0.121
v -0.273 3.020 0.355
v 0.285 2.996 0.375
v -0.441 2.918 -0.313
v -0.648 3.137 0.355
v -0.633 3.504 0.332
v -0.559 2.902 0.156
v 0.016 3.691 -0.684
v -0.379 3.617 -0.648
v 0.422 3.914 0.555
v 0.273 3.578 -0.559
v -0.262 3.578 -0.559
# 93 vertices

vt  0.406 -0.848
vt  0.406 -0.910
vt  0.456 -0.820
vt  0.435 -0.805
vt  0.503 -0.813
vt  0.424 -0.879
vt  0.552 -0.402
vt  0.443 -0.316
vt  0.503 -0.383
vt  0.578 -0.379
vt  0.578 -0.348
vt  0.557 -0.367
vt  0.508 -0.863
vt  0.424 -0.879
vt  0.503 -0.813
vt  0.359 -0.855
vt  0.349 -0.930
vt  0.406 -0.848
vt  0.341 -0.859
vt  0.349 -0.930
vt  0.359 -0.855
vt  0.646 -0.168
vt  0.656 -0.141
vt  0.617 -0.059
vt  0.492 -0.094
vt  0.417 -0.070
vt  0.411 -0.152
vt  0.596 -0.367
vt  0.602 -0.402
vt  0.638 -0.320
vt  0.443 -0.316
vt  0.552 -0.402
vt  0.516 -0.320
vt  0.607 -0.320
vt  0.578 -0.348
vt  0.596 -0.367
vt  0.544 -0.320
vt  0.557 -0.367
vt  0.578 -0.348
vt  0.578 -0.316
vt  0.544 -0.320
vt  0.578 -0.348
vt  0.578 -0.316
vt  0.578 -0.348
vt  0.607 -0.320
vt  0.544 -0.320
vt  0.523 -0.277
vt  0.516 -0.320
vt  0.607 -0.320
vt  0.638 -0.320
vt  0.630 -0.273
vt  0.396 -0.977
vt  0.375 -0.945
vt  0.367 -0.980
vt  0.492 -0.094
vt  0.503 -0.035
vt  0.448 -0.035
vt  0.367 -0.352
vt  0.430 -0.367
vt  0.398 -0.344
vt  0.430 -0.316
vt  0.398 -0.344
vt  0.430 -0.367
vt  0.333 -0.254
vt  0.398 -0.344
vt  0.375 -0.246
vt  0.417 -0.070
vt  0.492 -0.094
vt  0.448 -0.035
vt  0.513 -0.422
vt  0.503 -0.531
vt  0.531 -0.539
vt  0.646 -0.168
vt  0.617 -0.059
vt  0.612 -0.078
vt  0.612 -0.078
vt  0.612 -0.160
vt  0.646 -0.168
vt  0.411 -0.578
vt  0.357 -0.641
vt  0.445 -0.801
vt  0.578 -0.414
vt  0.552 -0.402
vt  0.513 -0.391
vt  0.586 -0.262
vt  0.604 -0.281
vt  0.586 -0.191
vt  0.568 -0.262
vt  0.570 -0.191
vt  0.549 -0.281
vt  0.625 -0.223
vt  0.625 -0.195
vt  0.599 -0.191
vt  0.523 -0.180
vt  0.523 -0.195
vt  0.555 -0.191
vt  0.523 -0.223
vt  0.523 -0.195
vt  0.490 -0.188
vt  0.411 -0.152
vt  0.378 -0.141
vt  0.375 -0.246
vt  0.625 -0.180
vt  0.625 -0.195
vt  0.656 -0.188
vt  0.367 -0.352
vt  0.398 -0.344
vt  0.333 -0.254
vt  0.656 -0.188
vt  0.659 -0.199
vt  0.646 -0.168
vt  0.490 -0.395
vt  0.487 -0.449
vt  0.513 -0.422
vt  0.430 -0.316
vt  0.503 -0.383
vt  0.443 -0.316
vt  0.487 -0.449
vt  0.437 -0.410
vt  0.451 -0.461
vt  0.427 -0.230
vt  0.430 -0.316
vt  0.443 -0.316
vt  0.586 -0.191
vt  0.570 -0.191
vt  0.586 -0.262
vt  0.539 -0.160
vt  0.578 -0.160
vt  0.539 -0.078
vt  0.555 -0.191
vt  0.549 -0.281
vt  0.570 -0.191
vt  0.339 -0.977
vt  0.367 -0.980
vt  0.359 -0.945
vt  0.599 -0.191
vt  0.612 -0.160
vt  0.586 -0.191
vt  0.578 -0.414
vt  0.602 -0.422
vt  0.602 -0.402
vt  0.625 -0.180
vt  0.646 -0.168
vt  0.612 -0.160
vt  0.505 -0.164
vt  0.490 -0.188
vt  0.523 -0.180
vt  0.661 -0.242
vt  0.630 -0.273
vt  0.638 -0.320
vt  0.492 -0.242
vt  0.516 -0.320
vt  0.523 -0.277
vt  0.378 -0.469
vt  0.474 -0.434
vt  0.411 -0.410
vt  0.406 -0.848
vt  0.333 -0.805
vt  0.359 -0.855
vt  0.568 -0.262
vt  0.570 -0.277
vt  0.586 -0.262
vt  0.555 -0.191
vt  0.570 -0.191
vt  0.539 -0.160
vt  0.417 -0.105
vt  0.349 -0.098
vt  0.391 -0.164
vt  0.604 -0.281
vt  0.607 -0.320
vt  0.630 -0.273
vt  0.549 -0.281
vt  0.523 -0.277
vt  0.544 -0.320
vt  0.539 -0.160
vt  0.570 -0.191
vt  0.578 -0.160
vt  0.583 -0.277
vt  0.604 -0.281
vt  0.586 -0.262
vt  0.492 -0.242
vt  0.523 -0.277
vt  0.523 -0.223
vt  0.539 -0.078
vt  0.612 -0.078
vt  0.503 -0.035
vt  0.513 -0.391
vt  0.602 -0.422
vt  0.578 -0.414
vt  0.333 -0.254
vt  0.375 -0.246
vt  0.378 -0.141
vt  0.437 -0.867
vt  0.456 -0.820
vt  0.406 -0.910
vt  0.617 -0.059
vt  0.503 -0.035
vt  0.612 -0.078
vt  0.654 -0.316
vt  0.638 -0.320
vt  0.602 -0.402
vt  0.661 -0.242
vt  0.625 -0.223
vt  0.630 -0.273
vt  0.638 -0.320
vt  0.654 -0.316
vt  0.661 -0.242
vt  0.492 -0.242
vt  0.523 -0.223
vt  0.490 -0.188
vt  0.424 -0.879
vt  0.398 -0.914
vt  0.435 -0.805
vt  0.375 -0.945
vt  0.359 -0.945
vt  0.367 -0.980
vt  0.654 -0.316
vt  0.602 -0.402
vt  0.602 -0.422
vt  0.539 -0.078
vt  0.503 -0.035
vt  0.492 -0.094
vt  0.378 -0.141
vt  0.411 -0.152
vt  0.417 -0.070
vt  0.661 -0.242
vt  0.656 -0.188
vt  0.625 -0.223
vt  0.437 -0.172
vt  0.492 -0.074
vt  0.411 -0.152
vt  0.578 -0.379
vt  0.596 -0.367
vt  0.578 -0.348
vt  0.557 -0.367
vt  0.516 -0.320
vt  0.552 -0.402
vt  0.487 -0.449
vt  0.490 -0.395
vt  0.437 -0.410
vt  0.555 -0.191
vt  0.539 -0.160
vt  0.523 -0.180
vt  0.406 -0.910
vt  0.406 -0.848
vt  0.349 -0.930
vt  0.570 -0.277
vt  0.568 -0.262
vt  0.549 -0.281
vt  0.583 -0.277
vt  0.586 -0.262
vt  0.570 -0.277
vt  0.599 -0.191
vt  0.586 -0.191
vt  0.604 -0.281
vt  0.557 -0.367
vt  0.544 -0.320
vt  0.516 -0.320
vt  0.638 -0.320
vt  0.607 -0.320
vt  0.596 -0.367
vt  0.539 -0.160
vt  0.505 -0.164
vt  0.523 -0.180
vt  0.568 -0.262
vt  0.586 -0.262
vt  0.570 -0.191
vt  0.599 -0.191
vt  0.625 -0.180
vt  0.612 -0.160
vt  0.646 -0.168
vt  0.625 -0.180
vt  0.656 -0.188
vt  0.435 -0.805
vt  0.398 -0.914
vt  0.398 -0.859
vt  0.367 -0.359
vt  0.430 -0.316
vt  0.430 -0.367
vt  0.451 -0.742
vt  0.378 -0.836
vt  0.383 -0.691
vt  0.393 -0.605
vt  0.445 -0.801
vt  0.458 -0.676
vt  0.333 -0.254
vt  0.391 -0.164
vt  0.336 -0.156
vt  0.503 -0.531
vt  0.513 -0.422
vt  0.487 -0.449
vt  0.646 -0.168
vt  0.659 -0.199
vt  0.656 -0.141
vt  0.451 -0.699
vt  0.409 -0.707
vt  0.437 -0.777
vt  0.451 -0.699
vt  0.461 -0.547
vt  0.409 -0.707
vt  0.456 -0.820
vt  0.437 -0.777
vt  0.406 -0.848
vt  0.409 -0.707
vt  0.406 -0.848
vt  0.437 -0.777
vt  0.503 -0.813
vt  0.505 -0.668
vt  0.456 -0.820
vt  0.378 -0.793
vt  0.378 -0.793
vt  0.378 -0.793
vt  0.396 -0.680
vt  0.464 -0.797
vt  0.505 -0.633
vt  0.448 -0.566
vt  0.419 -0.637
vt  0.453 -0.758
vt  0.612 -0.160
vt  0.578 -0.160
vt  0.586 -0.191
vt  0.570 -0.191
vt  0.586 -0.191
vt  0.578 -0.160
vt  0.612 -0.160
vt  0.612 -0.078
vt  0.578 -0.160
vt  0.539 -0.078
vt  0.578 -0.160
vt  0.612 -0.078
vt  0.398 -0.449
vt  0.333 -0.445
vt  0.336 -0.520
vt  0.349 -0.098
vt  0.336 -0.156
vt  0.391 -0.164
vt  0.490 -0.574
vt  0.477 -0.488
vt  0.346 -0.637
vt  0.477 -0.488
vt  0.339 -0.594
vt  0.346 -0.637
vt  0.523 -0.223
vt  0.555 -0.191
vt  0.523 -0.195
vt  0.523 -0.180
vt  0.490 -0.188
vt  0.523 -0.195
vt  0.625 -0.180
vt  0.599 -0.191
vt  0.625 -0.195
vt  0.625 -0.223
vt  0.656 -0.188
vt  0.625 -0.195
# 118 texture vertices

vt  0.578 -0.293
vt  0.604 -0.281
vt  0.578 -0.316
vt  0.607 -0.320
vt  0.456 -0.820
vt  0.503 -0.813
vt  0.437 -0.867
vt  0.508 -0.863
vt  0.406 -0.012
vt  0.432 -0.004
vt  0.370 -0.039
vt  0.430 -0.074
vt  0.451 -0.461
vt  0.461 -0.547
vt  0.385 -0.465
vt  0.383 -0.570
vt  0.461 -0.547
vt  0.503 -0.531
vt  0.451 -0.699
vt  0.505 -0.668
vt  0.349 -0.098
vt  0.370 -0.039
vt  0.417 -0.105
vt  0.430 -0.074
vt  0.526 -0.863
vt  0.508 -0.863
vt  0.534 -0.766
vt  0.503 -0.813
vt  0.492 -0.457
vt  0.383 -0.492
vt  0.474 -0.434
vt  0.378 -0.469
vt  0.490 -0.188
vt  0.437 -0.172
vt  0.505 -0.164
vt  0.492 -0.094
vt  0.451 -0.461
vt  0.385 -0.465
vt  0.437 -0.410
vt  0.385 -0.422
vt  0.409 -0.707
vt  0.359 -0.715
vt  0.461 -0.547
vt  0.383 -0.570
vt  0.487 -0.449
vt  0.503 -0.531
vt  0.451 -0.461
vt  0.461 -0.547
vt  0.523 -0.277
vt  0.523 -0.223
vt  0.549 -0.281
vt  0.555 -0.191
vt  0.492 -0.094
vt  0.539 -0.078
vt  0.505 -0.164
vt  0.539 -0.160
vt  0.437 -0.172
vt  0.490 -0.188
vt  0.427 -0.230
vt  0.492 -0.242
vt  0.430 -0.316
vt  0.398 -0.344
vt  0.427 -0.230
vt  0.375 -0.246
vt  0.427 -0.230
vt  0.375 -0.246
vt  0.437 -0.172
vt  0.411 -0.152
vt  0.596 -0.367
vt  0.602 -0.402
vt  0.578 -0.379
vt  0.578 -0.414
vt  0.516 -0.320
vt  0.443 -0.316
vt  0.492 -0.242
vt  0.427 -0.230
vt  0.557 -0.367
vt  0.578 -0.379
vt  0.552 -0.402
vt  0.578 -0.414
vt  0.336 -0.520
vt  0.398 -0.449
vt  0.339 -0.594
vt  0.477 -0.488
vt  0.578 -0.293
vt  0.578 -0.316
vt  0.549 -0.281
vt  0.544 -0.320
vt  0.630 -0.273
vt  0.604 -0.281
vt  0.625 -0.223
vt  0.599 -0.191
vt  0.409 -0.566
vt  0.500 -0.563
vt  0.396 -0.680
vt  0.505 -0.633
vt  0.503 -0.813
vt  0.505 -0.668
vt  0.534 -0.766
vt  0.534 -0.660
vt  0.451 -0.699
vt  0.505 -0.668
vt  0.437 -0.777
vt  0.456 -0.820
vt  0.409 -0.566
vt  0.383 -0.492
vt  0.500 -0.563
vt  0.492 -0.457
vt  0.359 -0.715
vt  0.409 -0.707
vt  0.333 -0.805
vt  0.406 -0.848
vt  0.531 -0.539
vt  0.534 -0.660
vt  0.503 -0.531
vt  0.505 -0.668
vt  0.352 -0.680
vt  0.346 -0.637
vt  0.362 -0.723
vt  0.490 -0.574
# 30 texture vertices

vn 0.180 3.820 -13.465
vn 7.816 -2.293 -13.770
vn 0.156 -15.875 -1.984
vn 7.875 -0.340 -13.922
vn 6.758 -7.547 -12.383
vn -0.078 -7.500 -14.133
vn -0.188 5.477 14.078
vn 14.473 -6.734 1.090
vn -0.105 -12.063 -10.512
vn 0.199 -8.090 -13.805
vn 11.926 6.430 5.355
vn 4.246 15.172 -2.789
vn 13.793 -1.555 -7.957
vn -9.191 -12.605 -3.555
vn -12.969 -7.078 -6.145
vn -7.598 -12.777 -5.914
vn 9.141 -12.688 -3.398
vn 7.543 -13.961 -2.043
vn -6.871 -7.281 -12.480
vn 14.160 -6.020 -4.383
vn -0.914 -4.930 15.195
vn 2.938 14.109 6.953
vn 9.887 -7.371 -10.195
vn 10.730 0.113 -11.867
vn 11.547 11.055 -0.691
vn -9.695 12.156 -3.766
vn 11.781 -7.313 -7.984
vn -11.605 -7.090 -8.430
vn 3.035 15.516 2.453
vn 8.430 13.438 2.082
vn -14.352 -4.793 -5.199
vn -7.457 13.629 3.836
vn -11.406 6.172 5.754
vn -8.820 -2.500 -13.113
vn 2.570 8.969 12.996
vn -12.602 6.609 7.316
vn -9.227 -12.965 -1.664
vn -14.566 1.828 -6.367
vn -10.484 9.266 -7.758
vn 11.793 -10.195 3.598
vn -5.227 -2.160 -14.965
vn 1.852 -2.637 -15.672
vn 3.539 0.531 -15.594
vn 6.480 -5.973 -13.355
vn -0.500 -4.809 15.250
vn -9.633 -3.723 -12.219
vn 9.762 -3.711 -12.121
vn 6.516 -0.414 -14.609
vn -9.570 6.051 -5.094
vn -7.543 -1.914 -13.980
vn 9.039 -2.527 -12.957
vn 3.629 15.031 -4.109
vn 13.234 -1.887 -8.789
vn -8.836 -5.469 -12.164
vn 5.781 -6.164 -13.586
vn -5.270 -6.000 -13.867
vn -12.246 -0.496 10.285
vn -6.461 -6.801 -12.961
vn 14.379 -1.664 -6.813
vn 9.523 6.461 -5.820
vn -6.082 -4.434 -14.117
vn 6.383 -4.563 -13.945
vn 8.715 -10.066 -8.867
vn 15.547 -3.156 -2.090
vn 0.039 -5.488 -15.031
vn 10.996 -4.691 -10.637
vn 10.043 11.625 4.473
vn 13.543 8.273 -2.020
vn 15.172 -4.078 -3.031
vn 6.656 -6.930 -12.793
vn 14.727 -1.188 -6.137
vn 15.164 4.203 2.883
vn -15.066 4.723 -2.586
vn -15.906 -1.500 -0.836
vn -6.527 -4.781 -13.805
vn 12.844 -0.973 -9.492
vn -4.059 -12.797 -8.707
vn 3.180 -12.430 -9.563
vn -6.316 -5.789 -13.512
vn -8.066 -0.313 -13.813
vn 12.027 -3.375 9.996
vn 10.418 -10.648 -5.832
vn -10.184 -6.816 10.289
vn 10.781 -7.891 8.805
vn -13.367 -8.734 1.000
vn -12.977 -8.258 4.406
vn -15.977 0.000 -0.883
vn -3.152 -14.109 -6.852
vn -0.090 -1.660 -15.914
vn -8.203 -4.363 -13.023
vn 11.410 6.922 8.828
vn 7.391 -3.176 -13.832
vn -7.762 -2.930 -13.680
# 93 vertex normals

s 1
f 15/1/15 49/2/49 83/3/83
f 20/4/20 84/5/84 60/6/60
f 17/7/17 40/8/40 18/9/18
f 10/10/10 65/11/65 70/12/70
f 11/13/11 60/14/60 84/15/84
f 16/16/16 1/17/1 15/18/15
f 18/19/18 1/20/1 16/21/16
f 63/22/63 90/23/90 23/24/23
f 13/25/13 68/26/68 71/27/71
f 58/28/58 14/29/14 28/30/28
f 40/31/40 17/32/17 27/33/27
f 79/34/79 65/35/65 58/36/58
f 44/37/44 70/38/70 65/39/65
f 6/40/6 44/41/44 65/42/65
f 6/43/6 65/44/65 79/45/79
f 44/46/44 51/47/51 27/48/27
f 79/49/79 28/50/28 34/51/34
f 46/52/46 77/53/77 9/54/9
f 13/55/13 24/56/24 25/57/25
f 84/58/84 82/59/82 8/60/8
f 20/61/20 8/62/8 82/63/82
f 81/64/81 8/65/8 64/66/64
f 68/67/68 13/68/13 25/69/25
f 67/70/67 35/71/35 91/72/91
f 63/73/63 23/74/23 42/75/42
f 42/76/42 56/77/56 63/78/63
f 37/79/37 31/80/31 85/81/85
f 3/82/3 17/83/17 18/84/18
f 41/85/41 46/86/46 50/87/50
f 2/88/2 48/89/48 47/90/47
f 80/91/80 93/92/93 61/93/61
f 5/94/5 92/95/92 62/96/62
f 4/97/4 92/98/92 53/99/53
f 71/100/71 72/101/72 64/102/64
f 19/103/19 93/104/93 54/105/54
f 84/106/84 8/107/8 81/108/81
f 54/109/54 75/110/75 63/111/63
f 30/112/30 22/113/22 67/114/67
f 20/115/20 18/116/18 40/117/40
f 22/118/22 29/119/29 32/120/32
f 69/121/69 20/122/20 40/123/40
f 50/124/50 48/125/48 41/126/41
f 55/127/55 89/128/89 43/129/43
f 62/130/62 47/131/47 48/132/48
f 47/133/47 9/134/9 78/135/78
f 61/136/61 56/137/56 50/138/50
f 3/139/3 16/140/16 14/141/14
f 19/142/19 63/143/63 56/144/56
f 66/145/66 53/146/53 5/147/5
f 75/148/75 34/149/34 28/150/28
f 76/151/76 27/152/27 51/153/51
f 52/154/52 12/155/12 25/156/25
f 15/157/15 37/158/37 16/159/16
f 2/160/2 78/161/78 41/162/41
f 62/163/62 48/164/48 55/165/55
f 68/166/68 67/167/67 72/168/72
f 46/169/46 79/170/79 34/171/34
f 47/172/47 51/173/51 44/174/44
f 55/175/55 48/176/48 89/177/89
f 77/178/77 46/179/46 41/180/41
f 76/181/76 51/182/51 4/183/4
f 43/184/43 42/185/42 24/186/24
f 18/187/18 16/188/16 3/189/3
f 81/190/81 64/191/64 72/192/72
f 33/193/33 83/194/83 49/195/49
f 23/196/23 24/197/24 42/198/42
f 37/199/37 28/200/28 14/201/14
f 75/202/75 80/203/80 34/204/34
f 28/205/28 37/206/37 75/207/75
f 76/208/76 4/209/4 53/210/53
f 60/211/60 1/212/1 20/213/20
f 77/214/77 78/215/78 9/216/9
f 37/217/37 14/218/14 16/219/16
f 43/220/43 24/221/24 13/222/13
f 72/223/72 71/224/71 68/225/68
f 75/226/75 54/227/54 80/228/80
f 59/229/59 13/230/13 71/231/71
f 10/232/10 58/233/58 65/234/65
f 70/235/70 27/236/27 17/237/17
f 22/238/22 30/239/30 29/240/29
f 62/241/62 55/242/55 5/243/5
f 49/244/49 15/245/15 1/246/1
f 78/247/78 2/248/2 47/249/47
f 77/250/77 41/251/41 78/252/78
f 61/253/61 50/254/50 46/255/46
f 70/256/70 44/257/44 27/258/27
f 28/259/28 79/260/79 58/261/58
f 55/262/55 66/263/66 5/264/5
f 2/265/2 41/266/41 48/267/48
f 61/268/61 19/269/19 56/270/56
f 63/271/63 19/272/19 54/273/54
f 20/274/20 1/275/1 18/276/18
f 84/277/84 20/278/20 82/279/82
f 37/280/37 85/281/85 75/282/75
f 75/283/75 85/284/85 31/285/31
f 81/286/81 72/287/72 91/288/91
f 35/289/35 67/290/67 22/291/22
f 63/292/63 75/293/75 90/294/90
f 57/295/57 87/296/87 86/297/86
f 57/298/57 36/299/36 87/300/87
f 83/301/83 86/302/86 15/303/15
f 87/304/87 15/305/15 86/306/86
f 45/307/45 21/308/21 83/309/83
f 37/310/37 74/311/74 88/312/88
f 31/313/31 88/314/88 74/315/74
f 31/316/31 37/317/37 88/318/88
f 56/319/56 89/320/89 50/321/50
f 48/322/48 50/323/50 89/324/89
f 56/325/56 42/326/42 89/327/89
f 43/328/43 89/329/89 42/330/42
f 52/331/52 25/332/25 24/333/24
f 67/334/67 91/335/91 72/336/72
f 38/337/38 39/338/39 90/339/90
f 39/340/39 23/341/23 90/342/90
f 4/343/4 62/344/62 92/345/92
f 5/346/5 53/347/53 92/348/92
f 19/349/19 61/350/61 93/351/93
f 80/352/80 54/353/54 93/354/93
s 1
f 46/356/46 9/355/9 6/357/6 79/358/79
f 45/360/45 83/359/83 33/361/33 7/362/7
f 12/364/12 29/363/29 30/365/30 25/366/25
f 36/368/36 32/367/32 26/369/26 73/370/73
f 35/372/35 36/371/36 57/373/57 21/374/21
f 30/376/30 67/375/67 68/377/68 25/378/25
f 7/380/7 11/379/11 84/381/84 45/382/45
f 39/384/39 26/383/26 12/385/12 52/386/52
f 59/388/59 53/387/53 66/389/66 13/390/13
f 26/392/26 32/391/32 29/393/29 12/394/12
f 74/396/74 87/395/87 36/397/36 73/398/73
f 35/400/35 22/399/22 32/401/32 36/402/36
f 4/404/4 51/403/51 47/405/47 62/406/62
f 43/408/43 13/407/13 66/409/66 55/410/55
f 53/412/53 59/411/59 69/413/69 76/414/76
f 8/416/8 20/415/20 69/417/69 64/418/64
f 64/420/64 69/419/69 59/421/59 71/422/71
f 14/424/14 58/423/58 10/425/10 3/426/3
f 40/428/40 27/427/27 76/429/76 69/430/69
f 10/432/10 70/431/70 17/433/17 3/434/3
f 52/436/52 24/435/24 23/437/23 39/438/39
f 6/440/6 9/439/9 47/441/47 44/442/44
f 46/444/46 34/443/34 80/445/80 61/446/61
f 73/448/73 38/447/38 31/449/31 74/450/74
f 21/452/21 45/451/45 84/453/84 81/454/81
f 21/456/21 57/455/57 86/457/86 83/458/83
f 39/460/39 38/459/38 73/461/73 26/462/26
f 87/464/87 74/463/74 37/465/37 15/466/15
f 81/468/81 91/467/91 35/469/35 21/470/21
f 90/472/90 75/471/75 31/473/31 38/474/38
